<svg xmlns="http://www.w3.org/2000/svg" style="display:none">
  <!-- built by gruesøme -->
  <symbol id="i-wallet" viewBox="0 0 24 24">
    <path d="M3.5 7.5A3.5 3.5 0 0 1 7 4h10a1 1 0 0 1 0 2H7A1.5 1.5 0 0 0 5.5 7.5V8H18a3 3 0 0 1 3 3v6.5A3.5 3.5 0 0 1 17.5 21h-10A4 4 0 0 1 3.5 17V7.5Z" fill="currentColor" opacity=".35"/>
    <path d="M18 10H7.5A2.5 2.5 0 0 0 5 12.5V17a2 2 0 0 0 2 2h10.5A1.5 1.5 0 0 0 19 17.5V11a1 1 0 0 0-1-1Zm.2 4.2h-2.4a1.2 1.2 0 0 1 0-2.4h2.4a1.2 1.2 0 1 1 0 2.4Z" fill="currentColor"/>
  </symbol>

  <symbol id="i-bolt" viewBox="0 0 24 24">
    <path d="M13 2 3 14h7l-1 8 12-14h-7l-1-6Z" fill="currentColor"/>
  </symbol>

  <symbol id="i-crown" viewBox="0 0 24 24">
    <path d="M4 9 8 12l4-6 4 6 4-3v10a2 2 0 0 1-2 2H6a2 2 0 0 1-2-2V9Z" fill="currentColor"/>
  </symbol>

  <symbol id="i-ticket" viewBox="0 0 24 24">
    <path d="M4 7a2 2 0 0 1 2-2h12a2 2 0 0 1 2 2v2a2 2 0 0 0 0 4v2a2 2 0 0 1-2 2H6a2 2 0 0 1-2-2v-2a2 2 0 0 0 0-4V7Z" fill="currentColor" opacity=".35"/>
    <path d="M9 7h2v10H9V7Zm4 0h2v10h-2V7Z" fill="currentColor"/>
  </symbol>

  <symbol id="i-star" viewBox="0 0 24 24">
    <path d="M12 2l2.7 6.1 6.6.6-5 4.3 1.5 6.4L12 16.6 6.2 19.4 7.7 13l-5-4.3 6.6-.6L12 2Z" fill="currentColor"/>
  </symbol>

  <symbol id="i-lock" viewBox="0 0 24 24">
    <path d="M7 10V8a5 5 0 0 1 10 0v2" fill="none" stroke="currentColor" stroke-width="2" stroke-linecap="round"/>
    <path d="M6 10h12a2 2 0 0 1 2 2v7a3 3 0 0 1-3 3H7a3 3 0 0 1-3-3v-7a2 2 0 0 1 2-2Z" fill="currentColor" opacity=".35"/>
    <path d="M12 14v4" stroke="currentColor" stroke-width="2" stroke-linecap="round"/>
  </symbol>

  <symbol id="i-link" viewBox="0 0 24 24">
    <path d="M10 13a5 5 0 0 1 0-7l.7-.7a5 5 0 0 1 7 7l-.6.6" fill="none" stroke="currentColor" stroke-width="2" stroke-linecap="round"/>
    <path d="M14 11a5 5 0 0 1 0 7l-.7.7a5 5 0 0 1-7-7l.6-.6" fill="none" stroke="currentColor" stroke-width="2" stroke-linecap="round"/>
  </symbol>

  <symbol id="i-info" viewBox="0 0 24 24">
    <path d="M12 22A10 10 0 1 0 12 2a10 10 0 0 0 0 20Z" fill="currentColor" opacity=".35"/>
    <path d="M12 10.5a1 1 0 1 0 0-2 1 1 0 0 0 0 2Zm-1 2.2h2V18h-2v-5.3Z" fill="currentColor"/>
  </symbol>

  <symbol id="i-check" viewBox="0 0 24 24">
    <path d="M20 7 10.5 17.2 4 11.3" fill="none" stroke="currentColor" stroke-width="2.5" stroke-linecap="round" stroke-linejoin="round"/>
  </symbol>

  <symbol id="i-x" viewBox="0 0 24 24">
    <path d="M6 6l12 12M18 6 6 18" fill="none" stroke="currentColor" stroke-width="2.5" stroke-linecap="round"/>
  </symbol>
</svg>
